<?xml version="1.0" encoding="utf-8"?>
<!-- Generator: Adobe Illustrator 26.0.2, SVG Export Plug-In . SVG Version: 6.00 Build 0)  -->
<svg version="1.1" id="Layer_1" xmlns="http://www.w3.org/2000/svg" xmlns:xlink="http://www.w3.org/1999/xlink" x="0px" y="0px"
	 viewBox="0 0 410.1 103" style="enable-background:new 0 0 410.1 103;" xml:space="preserve">
<style type="text/css">
	.st0{fill:#FE563E;}
</style>
<path id="key" class="st0" d="M20.6,41.5c-1.5-2.8-2.2-5.9-2.2-9.3c0-5.1,1.6-9.3,4.8-12.4c3.2-3.1,7.5-4.7,12.7-4.7
	c3.6,0,6.8,0.8,9.6,2.5c2.8,1.7,5.3,4.1,7.4,7.2l4.8-4.6c-1.5-2.4-3.3-4.5-5.5-6.2c-2.2-1.7-4.6-3-7.4-4c-2.7-1-5.8-1.4-9.1-1.4
	c-4.7,0-8.9,1-12.6,3c-3.7,2-6.5,4.8-8.6,8.2c-2.1,3.5-3.1,7.5-3.1,12.2c0,4,0.9,7.8,2.6,11.4c0.9,1.9,2.1,3.7,3.5,5.6
	c-4.4,2.4-7.9,5.7-10.6,9.9c-3,4.7-4.5,9.8-4.5,15.2c0,5.1,1.2,9.7,3.7,13.6c2.4,3.9,5.8,7,10,9.3c4.2,2.3,9.1,3.4,14.6,3.4
	c3.8,0,7.3-0.5,10.7-1.6c3.4-1.1,6.4-2.7,9.2-4.7c2-1.5,3.8-3.2,5.2-5.2l9.9,10.2h8.8L28,51.1C24.5,47.5,22,44.3,20.6,41.5
	 M43.9,90.7C40,92.9,35.7,94,31,94c-4.2,0-7.9-0.9-11.2-2.6c-3.3-1.7-5.8-4-7.7-7c-1.9-3-2.8-6.4-2.8-10.3c0-4.7,1.2-9,3.7-12.9
	c2.2-3.4,4.9-6,8.2-7.9c0.3,0.3,0.6,0.7,1,1l29,29.9C49.4,86.8,47,89,43.9,90.7 M120.3,38.1c-4.8-2.7-10.4-4.1-16.8-4.1
	c-6.5,0-12.3,1.4-17.4,4.3c-5.1,2.9-9.2,6.8-12.2,11.8c-3,5-4.4,10.7-4.4,16.9c0,6.5,1.5,12.2,4.6,17.3c3.1,5.1,7.2,9,12.6,11.8
	c5.3,2.8,11.4,4.3,18.3,4.3c5.4,0,10.3-0.9,14.8-2.7c4.4-1.8,8.2-4.6,11.4-8.3l-11.1-11c-1.9,2.2-4.1,3.8-6.7,4.9
	c-2.5,1.1-5.3,1.6-8.4,1.6c-3.4,0-6.3-0.7-8.8-2.2c-2.5-1.4-4.4-3.5-5.8-6.2c-0.4-0.8-0.8-1.7-1.1-2.7l45.5-0.2
	c0.4-1.6,0.7-3,0.9-4.3c0.1-1.3,0.2-2.5,0.2-3.7c0-6.2-1.4-11.7-4.2-16.5C128.9,44.6,125.1,40.8,120.3,38.1 M95.6,51.6
	c2.3-1.5,5-2.2,8.2-2.2c2.9,0,5.3,0.7,7.4,2c2,1.3,3.6,3.2,4.6,5.6c0.4,0.9,0.8,2,1,3.1l-27.5,0.2c0.3-0.9,0.6-1.7,0.9-2.4
	C91.5,55.1,93.3,53.1,95.6,51.6 M208.9,29.5c0-2.7,0.8-4.8,2.4-6.4c1.6-1.6,3.8-2.4,6.5-2.4c1.5,0,2.7,0.2,3.8,0.7
	c1,0.5,2,1.2,2.9,2l12.6-12.8c-2.4-2.4-5.3-4.4-8.6-5.9c-3.3-1.5-7.1-2.2-11.5-2.2c-5.7,0-10.6,1.2-14.9,3.7
	c-2.2,1.2-4.1,2.7-5.7,4.4c-1.2-1.1-2.5-2.1-4-3c-4-2.5-9-3.7-14.9-3.7c-5.9,0-11.1,1.3-15.4,3.8c-4.4,2.5-7.7,6-10,10.4
	c-2.3,4.4-3.5,9.4-3.5,14.9v2.6h-14.1v17.1h14.1v46.5h20V52.6h20.3v46.5h20V52.6h18.3V35.5h-18.3V29.5z M168.6,35.5v-4.1
	c0-3.2,0.9-5.7,2.7-7.5c1.8-1.8,4.3-2.7,7.5-2.7c3.2,0,5.7,0.9,7.5,2.7c1.8,1.8,2.6,4.4,2.6,7.6v3.9H168.6z M278.2,38.1
	c-4.8-2.7-10.4-4.1-16.8-4.1c-6.5,0-12.3,1.4-17.4,4.3c-5.1,2.9-9.2,6.8-12.2,11.8c-3,5-4.4,10.7-4.4,16.9c0,6.5,1.5,12.2,4.6,17.3
	c3.1,5.1,7.2,9,12.6,11.8c5.3,2.8,11.4,4.3,18.3,4.3c5.4,0,10.3-0.9,14.8-2.7c4.4-1.8,8.2-4.6,11.4-8.3l-11.1-11
	c-1.9,2.2-4.1,3.8-6.7,4.9c-2.5,1.1-5.3,1.6-8.4,1.6c-3.4,0-6.3-0.7-8.8-2.2c-2.5-1.4-4.4-3.5-5.8-6.2c-0.4-0.8-0.8-1.7-1.1-2.7
	l45.5-0.2c0.4-1.6,0.7-3,0.9-4.3c0.1-1.3,0.2-2.5,0.2-3.7c0-6.2-1.4-11.7-4.2-16.5C286.7,44.6,283,40.8,278.2,38.1 M253.5,51.6
	c2.3-1.5,5-2.2,8.2-2.2c2.9,0,5.3,0.7,7.4,2c2,1.3,3.6,3.2,4.6,5.6c0.4,0.9,0.8,2,1,3.1l-27.5,0.2c0.3-0.9,0.6-1.7,0.9-2.4
	C249.4,55.1,251.2,53.1,253.5,51.6 M338.9,80.9c2-0.9,3.8-2.1,5.3-3.8l13,12.8c-3.4,3.5-7.2,6.1-11.3,7.9c-4.1,1.8-8.8,2.7-14.1,2.7
	c-6.6,0-12.6-1.4-17.9-4.3c-5.3-2.9-9.5-6.8-12.5-11.9c-3-5.1-4.5-10.7-4.5-17c0-6.4,1.5-12.1,4.6-17.1c3.1-5,7.2-9,12.6-11.8
	c5.3-2.9,11.3-4.3,17.9-4.3c5.1,0,9.7,0.9,13.8,2.6c4.1,1.7,7.8,4.2,11.1,7.5l-13,13.1c-1.5-1.7-3.2-2.9-5.2-3.7
	c-2-0.8-4.2-1.2-6.7-1.2c-2.8,0-5.3,0.6-7.5,1.9c-2.2,1.3-4,3-5.2,5.2c-1.3,2.2-1.9,4.8-1.9,7.7c0,3,0.6,5.6,1.9,7.9
	c1.3,2.3,3,4,5.3,5.3c2.3,1.3,4.8,1.9,7.5,1.9C334.6,82.2,336.9,81.8,338.9,80.9 M407.6,52.6h-14.4v46.5h-20.2V52.6h-14.3V35.5h14.3
	V9.2h20.2v26.3h14.4V52.6z"/>
</svg>
