<svg width="142" height="36" xmlns="http://www.w3.org/2000/svg" xmlns:xlink="http://www.w3.org/1999/xlink" xml:space="preserve" overflow="hidden"><defs><clipPath id="clip0"><rect x="583" y="927" width="140" height="35"/></clipPath><clipPath id="clip1"><rect x="583" y="927" width="140" height="35"/></clipPath><clipPath id="clip2"><rect x="583" y="927" width="140" height="35"/></clipPath></defs><g transform="translate(-582 -926)"><g><g clip-path="url(#clip0)"><g clip-path="url(#clip1)"><g clip-path="url(#clip2)"><path d="M81.452 6.20894C81.452 6.89882 81.2221 7.40473 80.7622 7.77267 80.3022 8.09461 79.6583 8.27858 78.8305 8.27858L76.9448 8.27858 76.9448 0.919842 78.5545 0.919842C79.3824 0.919842 80.0723 1.05782 80.5322 1.37976 80.9921 1.70171 81.2221 2.16163 81.2221 2.75953 81.2221 3.17346 81.0841 3.54139 80.8541 3.81735 80.6242 4.0933 80.3022 4.27727 79.8883 4.36925 80.9001 4.55322 81.452 5.15112 81.452 6.20894M77.9106 1.65572 77.9106 4.04731 78.8305 4.04731C79.2444 4.04731 79.5664 3.95532 79.7963 3.72536 80.0263 3.4954 80.1643 3.21945 80.1643 2.85151 80.1643 2.43758 80.0263 2.11564 79.7963 1.93167 79.5204 1.7477 79.1524 1.65572 78.6465 1.65572L77.9106 1.65572ZM79.9803 7.17477C80.2562 6.9908 80.3942 6.62286 80.3942 6.16294 80.3942 5.2431 79.8883 4.78318 78.8765 4.78318L77.8647 4.78318 77.8647 7.49671 78.7845 7.49671C79.3364 7.49671 79.7043 7.40473 79.9803 7.17477" fill="#6EACC0" fill-rule="nonzero" fill-opacity="1" transform="matrix(1.01333 0 0 1 583.092 927)"/><path d="M86.4652 5.79501 83.1997 5.79501C83.2457 6.4389 83.3377 6.94481 83.6137 7.22076 83.8436 7.49671 84.1656 7.63469 84.5795 7.63469 84.8555 7.63469 85.0854 7.5887 85.2694 7.49671 85.4534 7.40473 85.6833 7.31275 85.9133 7.12878L86.3272 7.68068C85.8213 8.1406 85.2234 8.37057 84.5335 8.37057 83.7976 8.37057 83.2457 8.09461 82.8318 7.5887 82.4179 7.08279 82.2339 6.34691 82.2339 5.42707 82.2339 4.50723 82.4179 3.77135 82.8318 3.21945 83.1997 2.66754 83.7516 2.39159 84.4415 2.39159 85.1314 2.39159 85.6373 2.62155 86.0053 3.12746 86.3732 3.58739 86.5572 4.27727 86.5572 5.19711 86.4652 5.42707 86.4652 5.61104 86.4652 5.79501M85.5453 5.01314C85.5453 3.81735 85.1774 3.26544 84.3955 3.26544 84.0276 3.26544 83.7516 3.40342 83.5677 3.72536 83.3377 4.00131 83.2457 4.50723 83.1997 5.15112L85.5453 5.15112 85.5453 5.01314Z" fill="#6EACC0" fill-rule="nonzero" fill-opacity="1" transform="matrix(1.01333 0 0 1 583.092 927)"/><path d="M90.3285 2.57556 90.1905 3.4954C90.0526 3.44941 89.9146 3.44941 89.7306 3.44941 89.4087 3.44941 89.1787 3.58739 88.9487 3.81735 88.7648 4.04731 88.5808 4.46124 88.4888 4.96715L88.4888 8.27858 87.523 8.27858 87.523 2.66754 88.3509 2.66754 88.4428 3.77135C88.7188 2.9435 89.1787 2.52957 89.8226 2.52957 90.0066 2.52957 90.1905 2.52957 90.3285 2.57556" fill="#6EACC0" fill-rule="nonzero" fill-opacity="1" transform="matrix(1.01333 0 0 1 583.092 927)"/><path d="M91.3403 8.09461C91.1564 7.91064 91.0184 7.5887 91.0184 7.22076L91.0184 0.367937 91.9842 0.275953 91.9842 7.22076C91.9842 7.49671 92.0762 7.63469 92.3062 7.63469 92.3982 7.63469 92.4901 7.63469 92.6281 7.5887L92.8581 8.27858C92.6281 8.41656 92.3982 8.46255 92.1222 8.46255 91.8003 8.41656 91.5703 8.32457 91.3403 8.09461" fill="#6EACC0" fill-rule="nonzero" fill-opacity="1" transform="matrix(1.01333 0 0 1 583.092 927)"/><path d="M94.6058 0.183968C94.7438 0.321945 94.7897 0.459921 94.7897 0.64389 94.7897 0.827858 94.7438 0.965834 94.6058 1.10381 94.5138 1.24179 94.3298 1.28778 94.1459 1.28778 93.9619 1.28778 93.8239 1.24179 93.6859 1.10381 93.548 0.965834 93.502 0.827858 93.502 0.64389 93.502 0.459921 93.548 0.321945 93.6859 0.183968 93.8239 0.0459921 93.9619 -5.10614e-17 94.1459 -5.10614e-17 94.3758 0 94.5138 0.0459921 94.6058 0.183968M94.6518 8.27858 93.6859 8.27858 93.6859 2.66754 94.6518 2.66754 94.6518 8.27858Z" fill="#6EACC0" fill-rule="nonzero" fill-opacity="1" transform="matrix(1.01333 0 0 1 583.092 927)"/><path d="M99.5729 2.9435C99.8029 3.21945 99.9409 3.63338 99.9409 4.18528L99.9409 8.27858 98.975 8.27858 98.975 4.27727C98.975 3.90933 98.929 3.63338 98.7911 3.4954 98.6531 3.35742 98.4691 3.26544 98.2392 3.26544 97.7792 3.26544 97.3193 3.58739 96.9514 4.27727L96.9514 8.27858 95.9855 8.27858 95.9855 2.66754 96.8134 2.66754 96.9054 3.4954C97.3193 2.85151 97.8712 2.52957 98.5151 2.52957 98.975 2.52957 99.343 2.66754 99.5729 2.9435" fill="#6EACC0" fill-rule="nonzero" fill-opacity="1" transform="matrix(1.01333 0 0 1 583.092 927)"/><path d="M103.988 0.919842 105 0.919842 105 8.27858 103.988 8.27858Z" fill="#6EACC0" fill-rule="nonzero" fill-opacity="1" transform="matrix(1.01333 0 0 1 583.092 927)"/><path d="M109.921 2.9435C110.197 3.21945 110.289 3.63338 110.289 4.18528L110.289 8.27858 109.323 8.27858 109.323 4.27727C109.323 3.90933 109.277 3.63338 109.139 3.4954 109.001 3.35742 108.817 3.26544 108.587 3.26544 108.127 3.26544 107.668 3.58739 107.3 4.27727L107.3 8.27858 106.334 8.27858 106.334 2.66754 107.162 2.66754 107.254 3.4954C107.668 2.85151 108.219 2.52957 108.863 2.52957 109.323 2.52957 109.645 2.66754 109.921 2.9435" fill="#6EACC0" fill-rule="nonzero" fill-opacity="1" transform="matrix(1.01333 0 0 1 583.092 927)"/><path d="M114.934 3.17346 114.52 3.72536C114.29 3.58739 114.06 3.44941 113.876 3.35742 113.693 3.26544 113.463 3.21945 113.233 3.21945 112.957 3.21945 112.727 3.31143 112.543 3.44941 112.359 3.58739 112.313 3.77135 112.313 4.00131 112.313 4.23127 112.405 4.41524 112.543 4.55322 112.681 4.6912 113.003 4.82917 113.463 4.96715 114.014 5.15112 114.428 5.38108 114.704 5.61104 114.98 5.88699 115.072 6.20894 115.072 6.66886 115.072 7.17477 114.888 7.5887 114.474 7.91064 114.106 8.23259 113.601 8.37057 113.049 8.37057 112.267 8.37057 111.623 8.09461 111.117 7.5887L111.623 7.03679C112.083 7.40473 112.543 7.5887 113.049 7.5887 113.371 7.5887 113.601 7.49671 113.83 7.35874 114.014 7.22076 114.106 6.9908 114.106 6.71485 114.106 6.53088 114.06 6.34691 114.014 6.25493 113.968 6.11695 113.83 6.02497 113.647 5.93298 113.463 5.841 113.233 5.74901 112.865 5.61104 112.313 5.42707 111.945 5.19711 111.715 4.96715 111.485 4.73719 111.347 4.41524 111.347 4.00131 111.347 3.72536 111.439 3.44941 111.577 3.21945 111.715 2.98949 111.945 2.80552 112.221 2.66754 112.497 2.52957 112.819 2.48357 113.187 2.48357 113.83 2.52957 114.428 2.71353 114.934 3.17346" fill="#6EACC0" fill-rule="nonzero" fill-opacity="1" transform="matrix(1.01333 0 0 1 583.092 927)"/><path d="M118.982 8.04862C118.614 8.32457 118.246 8.41656 117.786 8.41656 117.326 8.41656 116.958 8.27858 116.728 8.00263 116.498 7.72668 116.36 7.35874 116.36 6.89882L116.36 3.35742 115.578 3.35742 115.578 2.66754 116.36 2.66754 116.36 1.37976 117.326 1.24179 117.326 2.66754 118.568 2.66754 118.476 3.40342 117.326 3.40342 117.326 6.89882C117.326 7.40473 117.51 7.63469 117.924 7.63469 118.062 7.63469 118.154 7.63469 118.246 7.5887 118.338 7.54271 118.476 7.49671 118.614 7.45072L118.982 8.04862Z" fill="#6EACC0" fill-rule="nonzero" fill-opacity="1" transform="matrix(1.01333 0 0 1 583.092 927)"/><path d="M120.637 0.183968C120.775 0.321945 120.821 0.459921 120.821 0.64389 120.821 0.827858 120.775 0.965834 120.637 1.10381 120.545 1.24179 120.361 1.28778 120.177 1.28778 119.993 1.28778 119.855 1.24179 119.717 1.10381 119.579 0.965834 119.534 0.827858 119.534 0.64389 119.534 0.459921 119.579 0.321945 119.717 0.183968 119.855 0.0459921 119.993 -5.10614e-17 120.177 -5.10614e-17 120.361 0 120.499 0.0459921 120.637 0.183968M120.637 8.27858 119.671 8.27858 119.671 2.66754 120.637 2.66754 120.637 8.27858Z" fill="#6EACC0" fill-rule="nonzero" fill-opacity="1" transform="matrix(1.01333 0 0 1 583.092 927)"/><path d="M124.915 8.04862C124.547 8.32457 124.179 8.41656 123.719 8.41656 123.259 8.41656 122.891 8.27858 122.661 8.00263 122.431 7.72668 122.293 7.35874 122.293 6.89882L122.293 3.35742 121.511 3.35742 121.511 2.66754 122.293 2.66754 122.293 1.37976 123.259 1.24179 123.259 2.66754 124.501 2.66754 124.409 3.40342 123.259 3.40342 123.259 6.89882C123.259 7.40473 123.443 7.63469 123.857 7.63469 123.995 7.63469 124.087 7.63469 124.179 7.5887 124.271 7.54271 124.409 7.49671 124.547 7.45072L124.915 8.04862Z" fill="#6EACC0" fill-rule="nonzero" fill-opacity="1" transform="matrix(1.01333 0 0 1 583.092 927)"/><path d="M129.376 8.27858 128.548 8.27858 128.502 7.45072C128.088 8.09461 127.582 8.41656 126.938 8.41656 126.478 8.41656 126.156 8.27858 125.88 7.95664 125.604 7.68068 125.512 7.26675 125.512 6.76084L125.512 2.62155 126.478 2.62155 126.478 6.66886C126.478 6.9908 126.524 7.22076 126.662 7.40473 126.8 7.54271 126.984 7.63469 127.214 7.63469 127.674 7.63469 128.088 7.31275 128.456 6.71485L128.456 2.66754 129.422 2.66754 129.422 8.27858Z" fill="#6EACC0" fill-rule="nonzero" fill-opacity="1" transform="matrix(1.01333 0 0 1 583.092 927)"/><path d="M133.515 8.04862C133.147 8.32457 132.779 8.41656 132.319 8.41656 131.859 8.41656 131.491 8.27858 131.261 8.00263 131.032 7.72668 130.894 7.35874 130.894 6.89882L130.894 3.35742 130.112 3.35742 130.112 2.66754 130.894 2.66754 130.894 1.37976 131.859 1.24179 131.859 2.66754 133.101 2.66754 133.009 3.40342 131.859 3.40342 131.859 6.89882C131.859 7.40473 132.043 7.63469 132.457 7.63469 132.595 7.63469 132.687 7.63469 132.779 7.5887 132.871 7.54271 133.009 7.49671 133.147 7.45072L133.515 8.04862Z" fill="#6EACC0" fill-rule="nonzero" fill-opacity="1" transform="matrix(1.01333 0 0 1 583.092 927)"/><path d="M137.976 5.79501 134.711 5.79501C134.757 6.4389 134.849 6.94481 135.125 7.22076 135.355 7.49671 135.677 7.63469 136.091 7.63469 136.367 7.63469 136.597 7.5887 136.781 7.49671 136.965 7.40473 137.194 7.31275 137.424 7.12878L137.838 7.68068C137.332 8.1406 136.735 8.37057 136.045 8.37057 135.309 8.37057 134.757 8.09461 134.343 7.5887 133.929 7.08279 133.745 6.34691 133.745 5.42707 133.745 4.50723 133.929 3.77135 134.343 3.21945 134.711 2.66754 135.263 2.39159 135.953 2.39159 136.643 2.39159 137.148 2.62155 137.516 3.12746 137.884 3.58739 138.068 4.27727 138.068 5.19711 137.976 5.42707 137.976 5.61104 137.976 5.79501M137.057 5.01314C137.057 3.81735 136.689 3.26544 135.907 3.26544 135.539 3.26544 135.263 3.40342 135.079 3.72536 134.849 4.00131 134.757 4.50723 134.711 5.15112L137.057 5.15112 137.057 5.01314Z" fill="#6EACC0" fill-rule="nonzero" fill-opacity="1" transform="matrix(1.01333 0 0 1 583.092 927)"/><path d="M80.4862 14.2576C80.9001 14.7635 81.0841 15.4993 81.0841 16.4192 81.0841 17.339 80.9001 18.0749 80.4862 18.5808 80.0723 19.1327 79.5204 19.3627 78.8305 19.3627 78.0946 19.3627 77.5427 19.0867 77.1288 18.5808 76.7149 18.0749 76.5309 17.339 76.5309 16.4192 76.5309 15.4993 76.7149 14.7635 77.1288 14.2576 77.5427 13.7516 78.0946 13.4757 78.8305 13.4757 79.5204 13.4757 80.1183 13.7516 80.4862 14.2576M77.8647 14.8095C77.6347 15.1774 77.5427 15.7293 77.5427 16.4652 77.5427 17.9369 77.9566 18.6728 78.8305 18.6728 79.7043 18.6728 80.1183 17.9369 80.1183 16.4652 80.1183 15.7293 80.0263 15.1774 79.7963 14.8095 79.5664 14.4415 79.2444 14.3035 78.8305 14.3035 78.4166 14.3035 78.0946 14.4415 77.8647 14.8095" fill="#6EACC0" fill-rule="nonzero" fill-opacity="1" transform="matrix(1.01333 0 0 1 583.092 927)"/><path d="M83.5217 12.1879C83.3837 12.3259 83.3377 12.5099 83.3377 12.7858L83.3377 13.6137 84.5795 13.6137 84.4875 14.3495 83.3377 14.3495 83.3377 19.2247 82.3719 19.2247 82.3719 14.3495 81.544 14.3495 81.544 13.6137 82.3719 13.6137 82.3719 12.7858C82.3719 12.3259 82.5098 11.9579 82.7858 11.636 83.0618 11.3601 83.4757 11.2221 83.9816 11.2221 84.3955 11.2221 84.8095 11.3141 85.2234 11.544L84.9474 12.1879C84.6715 12.0499 84.3495 11.9579 84.0736 11.9579 83.7976 12.0039 83.6137 12.0499 83.5217 12.1879" fill="#6EACC0" fill-rule="nonzero" fill-opacity="1" transform="matrix(1.01333 0 0 1 583.092 927)"/><path d="M91.5243 19.2707 91.5243 15.8213 88.8568 15.8213 88.8568 19.2707 87.8909 19.2707 87.8909 11.912 88.8568 11.912 88.8568 14.9934 91.5243 14.9934 91.5243 11.912 92.5361 11.912 92.5361 19.2707Z" fill="#6EACC0" fill-rule="nonzero" fill-opacity="1" transform="matrix(1.01333 0 0 1 583.092 927)"/><path d="M97.8252 16.7871 94.5598 16.7871C94.6058 17.431 94.6978 17.9369 94.9737 18.2129 95.2037 18.4888 95.5256 18.6268 95.9396 18.6268 96.2155 18.6268 96.4455 18.5808 96.6294 18.4888 96.8134 18.3968 97.0434 18.3049 97.2733 18.1209L97.6872 18.6728C97.1813 19.1327 96.5834 19.3627 95.8936 19.3627 95.1577 19.3627 94.6058 19.0867 94.1919 18.5808 93.7779 18.0749 93.594 17.339 93.594 16.4192 93.594 15.4993 93.7779 14.7635 94.1919 14.2116 94.5598 13.6597 95.1117 13.3837 95.8016 13.3837 96.4915 13.3837 96.9974 13.6137 97.3653 14.1196 97.7332 14.5795 97.9172 15.2694 97.9172 16.1892 97.8252 16.4192 97.8252 16.6032 97.8252 16.7871M96.9054 15.9593C96.9054 14.7635 96.5374 14.2116 95.7556 14.2116 95.3876 14.2116 95.1117 14.3495 94.9277 14.6715 94.7438 14.9474 94.6058 15.4534 94.5598 16.0972L96.9054 16.0972 96.9054 15.9593Z" fill="#6EACC0" fill-rule="nonzero" fill-opacity="1" transform="matrix(1.01333 0 0 1 583.092 927)"/><path d="M102.47 18.4888C102.516 18.5808 102.654 18.6728 102.792 18.7188L102.608 19.3627C102.332 19.3167 102.102 19.2247 101.965 19.0867 101.827 18.9488 101.689 18.7648 101.643 18.4888 101.275 19.0407 100.769 19.3627 100.125 19.3627 99.6189 19.3627 99.251 19.2247 98.929 18.9028 98.6531 18.5808 98.4691 18.1669 98.4691 17.661 98.4691 17.0631 98.6531 16.6032 99.067 16.2812 99.4809 15.9593 100.033 15.8213 100.723 15.8213L101.459 15.8213 101.459 15.3614C101.459 14.9474 101.367 14.6715 101.229 14.5335 101.091 14.3495 100.815 14.2576 100.447 14.2576 100.033 14.2576 99.6189 14.3495 99.067 14.5795L98.8371 13.8896C99.4809 13.6137 100.033 13.5217 100.585 13.5217 101.781 13.5217 102.424 14.1196 102.424 15.3614L102.424 18.0289C102.378 18.2129 102.424 18.3509 102.47 18.4888M101.413 17.7989 101.413 16.4652 100.815 16.4652C99.8949 16.4652 99.435 16.8331 99.435 17.615 99.435 17.9369 99.5269 18.2129 99.6649 18.3968 99.8029 18.5808 100.033 18.6728 100.309 18.6728 100.769 18.6728 101.183 18.3509 101.413 17.7989" fill="#6EACC0" fill-rule="nonzero" fill-opacity="1" transform="matrix(1.01333 0 0 1 583.092 927)"/><path d="M104.034 19.0867C103.85 18.9028 103.712 18.5808 103.712 18.2129L103.712 11.3601 104.678 11.2681 104.678 18.2129C104.678 18.4888 104.77 18.6268 105 18.6268 105.092 18.6268 105.184 18.6268 105.322 18.5808L105.552 19.2707C105.322 19.4087 105.092 19.4547 104.816 19.4547 104.494 19.4087 104.218 19.2707 104.034 19.0867" fill="#6EACC0" fill-rule="nonzero" fill-opacity="1" transform="matrix(1.01333 0 0 1 583.092 927)"/><path d="M109.047 18.9947C108.679 19.2707 108.311 19.3627 107.852 19.3627 107.392 19.3627 107.024 19.2247 106.794 18.9488 106.564 18.6728 106.426 18.3049 106.426 17.8449L106.426 14.3035 105.644 14.3035 105.644 13.5677 106.426 13.5677 106.426 12.2799 107.392 12.1419 107.392 13.5677 108.633 13.5677 108.541 14.3035 107.392 14.3035 107.392 17.7989C107.392 18.3049 107.576 18.5348 107.989 18.5348 108.127 18.5348 108.219 18.5348 108.311 18.4888 108.403 18.4428 108.541 18.3968 108.679 18.3509L109.047 18.9947Z" fill="#6EACC0" fill-rule="nonzero" fill-opacity="1" transform="matrix(1.01333 0 0 1 583.092 927)"/><path d="M113.325 13.9356C113.555 14.2576 113.693 14.6255 113.693 15.1774L113.693 19.2707 112.727 19.2707 112.727 15.3154C112.727 14.9474 112.681 14.6715 112.543 14.5335 112.405 14.3955 112.221 14.2576 111.991 14.2576 111.531 14.2576 111.071 14.5795 110.703 15.2694L110.703 19.2707 109.737 19.2707 109.737 11.3601 110.703 11.2681 110.703 14.4415C110.887 14.1196 111.117 13.8896 111.393 13.7516 111.623 13.6137 111.945 13.5217 112.267 13.5217 112.727 13.4757 113.049 13.6597 113.325 13.9356" fill="#6EACC0" fill-rule="nonzero" fill-opacity="1" transform="matrix(1.01333 0 0 1 583.092 927)"/><path d="M31.3206 18.7188C32.6084 19.9146 33.2523 21.7083 33.2523 24.0999 33.2523 27.4113 32.1025 29.8029 29.8489 31.2746 27.5493 32.7464 24.4218 33.5283 20.3745 33.5283L11.0381 33.5283 11.0381 0.919842 19.1327 0.919842C23.272 0.919842 26.3995 1.60972 28.6531 2.98949 30.8607 4.36925 31.9645 6.4389 31.9645 9.29041 31.9645 11.1301 31.4126 12.6478 30.3548 13.8436 29.251 15.0394 27.8712 15.8673 26.1695 16.3272 28.3311 16.7411 30.0329 17.523 31.3206 18.7188M17.8449 5.79501 17.8449 14.2116 20.2825 14.2116C23.456 14.2116 25.0657 12.7858 25.0657 9.8883 25.0657 8.46255 24.6518 7.40473 23.8239 6.76084 22.9961 6.11695 21.6623 5.79501 19.8226 5.79501L17.8449 5.79501ZM24.7438 27.4573C25.7556 26.7674 26.2155 25.5256 26.2155 23.7779 26.2155 20.4665 24.3758 18.8108 20.7424 18.8108L17.7989 18.8108 17.7989 28.4691 20.3285 28.4691C22.3062 28.5151 23.7779 28.1472 24.7438 27.4573" fill="#6EACC0" fill-rule="nonzero" fill-opacity="1" transform="matrix(1.01333 0 0 1 583.092 927)"/><path d="M36.7017 0.919842 43.5085 0.919842 43.5085 33.5742 36.7017 33.5742Z" fill="#6EACC0" fill-rule="nonzero" fill-opacity="1" transform="matrix(1.01333 0 0 1 583.092 927)"/><path d="M64.6649 33.5283 64.6649 19.2247 55.6045 19.2247 55.6045 33.5283 48.8436 33.5283 48.8436 0.919842 55.6045 0.919842 55.6045 13.8436 64.6649 13.8436 64.6649 0.919842 71.4717 0.919842 71.4717 33.5283Z" fill="#6EACC0" fill-rule="nonzero" fill-opacity="1" transform="matrix(1.01333 0 0 1 583.092 927)"/><path d="M0 14.2576 6.11695 14.2576 6.11695 33.5283 8.7723e-08 33.5283Z" fill="#C01D75" fill-rule="nonzero" fill-opacity="1" transform="matrix(1.01333 0 0 1 583.092 927)"/><path d="M82.9698 26.2615C83.4757 26.5375 83.8436 26.9514 84.1196 27.4573 84.3955 27.9632 84.4875 28.5611 84.4875 29.205 84.4875 29.7109 84.3955 30.2628 84.2576 30.8147 84.0736 31.3666 83.8436 31.8265 83.5217 32.1945 83.1997 32.5624 82.7398 32.7464 82.2799 32.7464 81.9579 32.7464 81.682 32.6544 81.544 32.4244 81.36 32.2405 81.2681 31.9645 81.2681 31.6886 80.9001 32.3784 80.4402 32.7004 79.8883 32.7004 79.4744 32.7004 79.1524 32.5624 78.9225 32.2405 78.6925 31.9645 78.5545 31.5506 78.5545 31.0447 78.5545 30.5388 78.6465 30.0329 78.7845 29.5729 78.9225 29.113 79.1984 28.6991 79.5664 28.3771 79.9343 28.0552 80.3942 27.9172 80.9461 27.9172 81.406 27.9172 81.866 28.0552 82.2799 28.2852L81.866 31.1367C81.866 31.3206 81.866 31.4126 81.866 31.4586 81.866 31.6426 81.912 31.7806 81.9579 31.8725 82.0039 31.9645 82.1419 32.0105 82.3259 32.0105 82.6478 32.0105 82.8778 31.8725 83.1077 31.5506 83.3377 31.2286 83.4757 30.8607 83.5677 30.4008 83.6597 29.9409 83.7057 29.4809 83.7057 29.067 83.7057 28.2392 83.4757 27.5953 83.0618 27.1353 82.6018 26.6754 82.0039 26.4455 81.1761 26.4455 80.2562 26.4455 79.5204 26.6754 78.9685 27.1813 78.3706 27.6413 77.9566 28.2852 77.7267 28.975 77.4507 29.6649 77.3587 30.4008 77.3587 31.0907 77.3587 31.6886 77.4507 32.2405 77.6807 32.7004 77.9106 33.1603 78.2326 33.5283 78.6465 33.8042 79.0604 34.0802 79.5664 34.2181 80.1183 34.2181 80.7162 34.2181 81.3141 34.1261 81.912 33.8962L82.0499 34.5861C81.728 34.724 81.36 34.816 81.0841 34.862 80.7622 34.908 80.4402 34.954 80.0723 34.954 79.3824 34.954 78.7385 34.77 78.1866 34.4481 77.6347 34.1261 77.2208 33.6662 76.9448 33.1143 76.6689 32.5164 76.4849 31.8725 76.4849 31.1367 76.4849 30.3088 76.6689 29.5269 76.9908 28.6991 77.3128 27.8712 77.8647 27.1813 78.5545 26.6294 79.2904 26.0775 80.1643 25.8016 81.2681 25.8016 81.82 25.8016 82.4639 25.9396 82.9698 26.2615M80.6242 31.7806C80.8081 31.5506 80.9461 31.3666 81.0381 31.1367L81.406 28.6991C81.2221 28.6071 81.0381 28.6071 80.8541 28.6071 80.3022 28.6071 79.8883 28.883 79.6583 29.389 79.4284 29.8949 79.2904 30.4928 79.2904 31.1827 79.2904 31.8265 79.5204 32.1485 79.9343 32.1485 80.2102 32.1025 80.4402 31.9645 80.6242 31.7806" fill="#6EACC0" fill-rule="nonzero" fill-opacity="1" transform="matrix(1.01333 0 0 1 583.092 927)"/><path d="M90.2365 26.5834C90.5125 26.7214 90.7424 26.8594 90.9724 27.0894L90.4665 27.5953C90.2825 27.4573 90.0985 27.3193 89.9146 27.2273 89.7306 27.1353 89.5466 27.1353 89.3167 27.1353 88.8108 27.1353 88.3509 27.3193 88.0289 27.7332 87.707 28.1472 87.431 28.6071 87.293 29.205 87.1551 29.8029 87.0631 30.3548 87.0631 30.9527 87.0631 31.5966 87.201 32.0105 87.431 32.3325 87.661 32.6084 87.9829 32.7924 88.3968 32.7924 88.6728 32.7924 88.9028 32.7464 89.0867 32.6544 89.2707 32.5624 89.5007 32.4244 89.7766 32.2405L90.1445 32.8384C89.5926 33.3443 88.9487 33.5742 88.2589 33.5742 87.615 33.5742 87.0631 33.3443 86.6951 32.8844 86.3272 32.4244 86.0972 31.7806 86.0972 30.9067 86.0972 30.2168 86.1892 29.4809 86.4192 28.7911 86.6491 28.1012 87.0171 27.5493 87.477 27.0894 87.9369 26.6294 88.5348 26.3995 89.2707 26.3995 89.6846 26.3995 90.0066 26.4455 90.2365 26.5834" fill="#6EACC0" fill-rule="nonzero" fill-opacity="1" transform="matrix(1.01333 0 0 1 583.092 927)"/><path d="M94.7897 28.3771C95.0197 28.6071 95.1117 28.929 95.1117 29.297 95.1117 29.435 95.1117 29.5729 95.1117 29.6189L94.5598 33.3903 93.6859 33.3903 94.1919 29.6189C94.1919 29.4809 94.1919 29.389 94.1919 29.343 94.1919 28.929 94.0079 28.7451 93.6859 28.7451 93.226 28.7451 92.7201 29.205 92.2142 30.1708L91.7543 33.3903 90.8804 33.3903 91.9382 25.9855 92.8121 25.8936 92.3522 29.067C92.8121 28.3311 93.318 28.0092 93.9159 28.0092 94.3298 28.0092 94.6058 28.1472 94.7897 28.3771" fill="#6EACC0" fill-rule="nonzero" fill-opacity="1" transform="matrix(1.01333 0 0 1 583.092 927)"/><path d="M100.217 28.4231 99.6649 32.1945C99.6649 32.3325 99.6649 32.4244 99.6649 32.4704 99.6649 32.5624 99.6649 32.6544 99.7109 32.7464 99.7569 32.8384 99.8029 32.8844 99.9409 32.9304L99.6649 33.5283C99.435 33.4823 99.205 33.3903 99.067 33.2523 98.929 33.1143 98.8371 32.9304 98.8371 32.6544 98.6531 32.9304 98.4231 33.1603 98.1932 33.2983 97.9632 33.4363 97.6872 33.5283 97.4113 33.5283 96.9514 33.5283 96.5834 33.3443 96.3075 33.0223 96.0315 32.7004 95.8936 32.1945 95.8936 31.6426 95.8936 31.0907 95.9855 30.5388 96.1695 29.9869 96.3535 29.435 96.6754 28.975 97.0434 28.6071 97.4573 28.2392 97.9632 28.0552 98.5611 28.0552 99.113 28.0092 99.6649 28.1472 100.217 28.4231M97.5953 29.159C97.3193 29.435 97.1353 29.8029 96.9974 30.2628 96.8594 30.7227 96.8134 31.1827 96.8134 31.6426 96.8134 32.4244 97.0894 32.8384 97.5953 32.8384 97.8252 32.8384 98.0552 32.7464 98.2392 32.6084 98.4231 32.4704 98.6531 32.1945 98.883 31.9185L99.297 28.883C99.067 28.7911 98.8371 28.7451 98.6071 28.7451 98.1932 28.7451 97.8712 28.883 97.5953 29.159" fill="#6EACC0" fill-rule="nonzero" fill-opacity="1" transform="matrix(1.01333 0 0 1 583.092 927)"/><path d="M104.172 28.1012 103.896 28.929C103.758 28.883 103.62 28.883 103.482 28.883 103.206 28.883 102.93 29.021 102.7 29.297 102.47 29.5729 102.286 30.0329 102.102 30.5848L101.689 33.4363 100.815 33.4363 101.551 28.1472 102.286 28.1472 102.194 29.159C102.378 28.7911 102.562 28.5151 102.838 28.3311 103.068 28.1472 103.344 28.0552 103.62 28.0552 103.85 28.0092 104.034 28.0552 104.172 28.1012" fill="#6EACC0" fill-rule="nonzero" fill-opacity="1" transform="matrix(1.01333 0 0 1 583.092 927)"/><path d="M105.782 28.1472 105.046 33.4363 104.172 33.4363 104.908 28.1472 105.782 28.1472ZM105.138 26.6754C105.046 26.5834 105 26.4455 105 26.3075 105 26.1235 105.046 25.9396 105.184 25.8476 105.322 25.7096 105.46 25.6636 105.644 25.6636 105.828 25.6636 105.966 25.7096 106.058 25.8016 106.15 25.8936 106.196 26.0315 106.196 26.2155 106.196 26.3995 106.15 26.5834 106.012 26.6754 105.874 26.8134 105.736 26.8594 105.552 26.8594 105.368 26.8134 105.23 26.7674 105.138 26.6754" fill="#6EACC0" fill-rule="nonzero" fill-opacity="1" transform="matrix(1.01333 0 0 1 583.092 927)"/><path d="M107.668 32.1485C107.668 32.1945 107.668 32.2405 107.668 32.3325 107.668 32.4704 107.714 32.6084 107.76 32.7004 107.852 32.7924 107.943 32.7924 108.081 32.7924 108.173 32.7924 108.311 32.7924 108.403 32.7464 108.495 32.7004 108.633 32.6544 108.771 32.6084L109.047 33.2063C108.725 33.4363 108.357 33.5742 107.943 33.5742 107.576 33.5742 107.3 33.4823 107.07 33.2523 106.84 33.0683 106.748 32.7464 106.748 32.4244 106.748 32.3784 106.748 32.2865 106.748 32.1485L107.208 28.8371 106.426 28.8371 106.518 28.1472 107.346 28.1472 107.668 26.9054 108.357 26.8134 108.173 28.1012 109.277 28.1012 109.093 28.7911 108.081 28.7911 107.668 32.1485Z" fill="#6EACC0" fill-rule="nonzero" fill-opacity="1" transform="matrix(1.01333 0 0 1 583.092 927)"/><path d="M112.681 30.8147C112.129 31.1367 111.347 31.3206 110.335 31.4586L110.335 31.5046C110.335 32.3784 110.657 32.7924 111.301 32.7924 111.531 32.7924 111.715 32.7464 111.945 32.7004 112.129 32.6084 112.359 32.5164 112.589 32.3325L112.957 32.9304C112.405 33.3443 111.807 33.5742 111.209 33.5742 110.657 33.5742 110.197 33.3903 109.875 33.0223 109.553 32.6544 109.415 32.1485 109.415 31.5506 109.415 30.9987 109.507 30.4468 109.691 29.8949 109.875 29.343 110.151 28.929 110.519 28.5611 110.887 28.1932 111.393 28.0552 111.991 28.0552 112.451 28.0552 112.865 28.1932 113.095 28.4231 113.371 28.6531 113.509 28.975 113.509 29.343 113.555 30.0329 113.233 30.4928 112.681 30.8147M110.887 29.297C110.611 29.7109 110.473 30.1708 110.381 30.7687 111.163 30.6767 111.715 30.5388 112.083 30.3088 112.451 30.1248 112.635 29.8029 112.635 29.343 112.635 29.159 112.589 29.021 112.497 28.883 112.405 28.7451 112.221 28.6991 111.991 28.6991 111.531 28.7451 111.163 28.929 110.887 29.297M113.003 25.4336 113.325 26.1695 111.301 27.0434 111.071 26.5834 113.003 25.4336Z" fill="#6EACC0" fill-rule="nonzero" fill-opacity="1" transform="matrix(1.01333 0 0 1 583.092 927)"/></g></g></g></g></g></svg>