<svg width="70" height="70" viewBox="0 0 70 70" fill="none" xmlns="http://www.w3.org/2000/svg">
<path d="M70 13.328C70 13.272 70 13.216 70 13.132C70 13.076 69.972 13.02 69.944 12.964C69.944 12.964 69.944 12.936 69.944 12.908C69.944 12.852 69.916 12.824 69.888 12.796C69.888 12.796 69.888 12.768 69.888 12.74C69.86 12.684 69.804 12.628 69.776 12.6L57.428 0.252015C57.372 0.196015 57.344 0.168015 57.288 0.140015C57.288 0.140015 57.26 0.140015 57.232 0.140015C57.204 0.140015 57.148 0.0840148 57.12 0.0840148C57.12 0.0840148 57.092 0.0840148 57.064 0.0840148C57.008 0.0840148 56.952 0.0560151 56.896 0.0280151C56.84 0.0280151 56.784 0.0280151 56.728 0.0280151H1.036C0.448 0.0280151 0 0.504015 0 1.06401V68.964C0 69.552 0.476 70 1.036 70H68.936C69.524 70 69.972 69.524 69.972 68.964V13.356L70 13.328Z" fill="white"/>
<path d="M10.22 15.008H11.508C12.292 15.008 12.964 14.868 13.496 14.616C14.028 14.364 14.476 14 14.784 13.496C15.092 13.02 15.232 12.46 15.232 11.788V11.592C15.232 10.92 15.092 10.36 14.784 9.88399C14.476 9.40799 14.056 9.04399 13.496 8.79199C12.936 8.53999 12.264 8.39999 11.508 8.39999H8.14804V17.64H10.192V15.008H10.22ZM10.22 10.192H11.62C11.928 10.192 12.208 10.248 12.432 10.388C12.656 10.528 12.852 10.696 12.964 10.92C13.076 11.144 13.16 11.424 13.16 11.732C13.16 12.04 13.104 12.292 12.964 12.516C12.824 12.74 12.656 12.936 12.432 13.048C12.208 13.16 11.928 13.244 11.62 13.244H10.22V10.192Z" fill="#1E3791"/>
<path d="M17.5001 16.296C17.8921 16.772 18.3961 17.136 19.0121 17.444C19.6281 17.752 20.3561 17.892 21.1681 17.892C21.9801 17.892 22.7081 17.752 23.3241 17.444C23.9401 17.136 24.4441 16.772 24.8361 16.296C25.2281 15.82 25.5361 15.316 25.7321 14.756C25.9281 14.196 26.0401 13.664 26.0401 13.16V12.88C26.0401 12.32 25.9281 11.76 25.7321 11.2C25.5081 10.64 25.2281 10.136 24.8081 9.68803C24.3881 9.24003 23.8841 8.87603 23.2681 8.59603C22.6521 8.31603 21.9521 8.17603 21.1401 8.17603C20.3281 8.17603 19.6281 8.31603 19.0121 8.59603C18.3961 8.87603 17.8921 9.24003 17.4721 9.68803C17.0521 10.136 16.7441 10.64 16.5481 11.2C16.3521 11.76 16.2401 12.32 16.2401 12.88V13.16C16.2401 13.664 16.3241 14.196 16.5481 14.756C16.7441 15.316 17.0521 15.82 17.4441 16.296H17.5001ZM18.5641 11.872C18.6761 11.508 18.8721 11.2 19.1241 10.948C19.3761 10.696 19.6561 10.472 20.0201 10.332C20.3561 10.192 20.7481 10.108 21.1961 10.108C21.6441 10.108 22.0081 10.164 22.3721 10.332C22.7361 10.5 23.0161 10.668 23.2681 10.948C23.5201 11.2 23.7161 11.536 23.8281 11.872C23.9681 12.236 24.0241 12.628 24.0241 13.048C24.0241 13.468 23.9681 13.832 23.8281 14.168C23.6881 14.504 23.5201 14.84 23.2681 15.092C23.0161 15.372 22.7361 15.568 22.3721 15.708C22.0081 15.848 21.6441 15.932 21.1961 15.932C20.7481 15.932 20.3841 15.848 20.0201 15.708C19.6841 15.568 19.3761 15.344 19.1241 15.092C18.8721 14.812 18.6761 14.504 18.5641 14.168C18.4521 13.832 18.3681 13.44 18.3681 13.048C18.3681 12.656 18.4241 12.236 18.5641 11.872Z" fill="#1E3791"/>
<path d="M31.948 15.988C31.696 16.1 31.36 16.128 30.996 16.128C30.632 16.128 30.212 16.072 29.96 15.932C29.708 15.792 29.484 15.652 29.372 15.456C29.26 15.26 29.176 15.036 29.176 14.812H27.188C27.188 15.4 27.328 15.932 27.636 16.38C27.916 16.828 28.364 17.192 28.924 17.444C29.484 17.696 30.184 17.836 31.024 17.836C31.864 17.836 32.48 17.724 33.04 17.472C33.6 17.22 34.02 16.884 34.328 16.436C34.636 15.988 34.776 15.484 34.776 14.896C34.776 14.308 34.636 13.832 34.356 13.44C34.076 13.048 33.656 12.74 33.152 12.488C32.648 12.264 32.06 12.124 31.388 12.068L30.688 12.012C30.268 11.984 29.96 11.872 29.792 11.676C29.596 11.48 29.512 11.256 29.512 11.004C29.512 10.752 29.568 10.612 29.652 10.444C29.736 10.276 29.904 10.136 30.1 10.024C30.296 9.91201 30.548 9.88401 30.856 9.88401C31.164 9.88401 31.444 9.94001 31.64 10.052C31.864 10.164 32.004 10.332 32.116 10.5C32.228 10.696 32.284 10.892 32.284 11.116H34.3C34.3 10.5 34.16 9.99601 33.88 9.54801C33.6 9.10001 33.208 8.76401 32.704 8.51201C32.2 8.26001 31.584 8.14801 30.856 8.14801C30.128 8.14801 29.568 8.26001 29.064 8.48401C28.56 8.70801 28.168 9.04401 27.888 9.46401C27.608 9.88401 27.468 10.388 27.468 10.976C27.468 11.564 27.748 12.432 28.28 12.936C28.812 13.44 29.54 13.72 30.464 13.776L31.164 13.832C31.724 13.888 32.116 14 32.368 14.168C32.62 14.336 32.732 14.56 32.732 14.868C32.732 15.176 32.676 15.316 32.536 15.484C32.396 15.652 32.2 15.792 31.948 15.904V15.988Z" fill="#1E3791"/>
<path d="M37.968 17.64H40.04V10.276H42.616V8.48404H35.42V10.276H37.968V17.64Z" fill="#1E3791"/>
<path d="M10.248 32.06C10.836 32.34 11.564 32.508 12.376 32.508C13.188 32.508 14 32.34 14.644 32.004C15.288 31.668 15.792 31.22 16.156 30.66C16.52 30.1 16.744 29.484 16.828 28.812H14.784C14.7 29.344 14.42 29.792 14 30.1C13.552 30.408 13.02 30.576 12.376 30.576C11.732 30.576 11.592 30.52 11.256 30.38C10.92 30.24 10.668 30.044 10.444 29.792C10.22 29.54 10.052 29.232 9.93998 28.868C9.82798 28.504 9.77198 28.112 9.77198 27.692C9.77198 27.272 9.82798 26.852 9.93998 26.516C10.052 26.152 10.22 25.844 10.444 25.592C10.668 25.34 10.92 25.144 11.228 24.976C11.536 24.808 11.9 24.752 12.32 24.752C12.74 24.752 13.104 24.808 13.44 24.976C13.776 25.144 14.028 25.312 14.252 25.592C14.476 25.872 14.588 26.152 14.644 26.544H16.716C16.66 25.816 16.436 25.172 16.044 24.612C15.652 24.08 15.148 23.632 14.532 23.324C13.888 23.016 13.16 22.848 12.348 22.848C11.536 22.848 10.864 22.988 10.276 23.268C9.68798 23.548 9.21198 23.912 8.81998 24.36C8.42798 24.808 8.14798 25.312 7.97998 25.872C7.78398 26.432 7.69998 26.992 7.69998 27.552V27.832C7.69998 28.336 7.78398 28.868 7.97998 29.428C8.17598 29.988 8.42798 30.492 8.81998 30.968C9.18398 31.444 9.68798 31.808 10.276 32.116L10.248 32.06Z" fill="#1E3791"/>
<path d="M23.1 22.82C22.288 22.82 21.588 22.96 20.972 23.24C20.356 23.52 19.852 23.884 19.432 24.332C19.012 24.78 18.704 25.284 18.508 25.844C18.312 26.404 18.2 26.964 18.2 27.524V27.804C18.2 28.308 18.284 28.84 18.508 29.4C18.704 29.96 19.012 30.464 19.404 30.94C19.796 31.416 20.3 31.78 20.916 32.088C21.532 32.396 22.26 32.536 23.072 32.536C23.884 32.536 24.612 32.396 25.228 32.088C25.844 31.78 26.348 31.416 26.74 30.94C27.132 30.464 27.44 29.96 27.636 29.4C27.832 28.84 27.944 28.308 27.944 27.804V27.524C27.944 26.964 27.832 26.404 27.636 25.844C27.412 25.284 27.132 24.78 26.712 24.332C26.292 23.884 25.788 23.52 25.172 23.24C24.556 22.96 23.856 22.82 23.044 22.82H23.1ZM25.9 27.664C25.9 28.056 25.844 28.448 25.704 28.784C25.592 29.12 25.396 29.456 25.144 29.708C24.892 29.988 24.612 30.184 24.248 30.324C23.912 30.464 23.52 30.548 23.072 30.548C22.624 30.548 22.26 30.464 21.896 30.324C21.56 30.184 21.252 29.96 21 29.708C20.748 29.428 20.552 29.12 20.44 28.784C20.328 28.448 20.244 28.056 20.244 27.664C20.244 27.272 20.3 26.852 20.44 26.488C20.552 26.124 20.748 25.816 21 25.564C21.252 25.312 21.532 25.088 21.896 24.948C22.232 24.808 22.624 24.724 23.072 24.724C23.52 24.724 23.884 24.78 24.248 24.948C24.612 25.116 24.892 25.284 25.144 25.564C25.396 25.816 25.592 26.152 25.704 26.488C25.844 26.852 25.9 27.244 25.9 27.664Z" fill="#1E3791"/>
<path d="M33.124 30.576L30.996 23.1H28.868L31.668 32.256H35L37.604 23.1H35.532L33.572 30.576H33.124Z" fill="#1E3791"/>
<path d="M41.244 23.1H39.2V32.256H41.244V23.1Z" fill="#1E3791"/>
<path d="M45.64 32.312H46.984C47.824 32.312 48.524 32.172 49.168 31.92C49.812 31.668 50.316 31.304 50.736 30.884C51.156 30.464 51.464 29.96 51.66 29.428C51.856 28.896 51.968 28.336 51.968 27.804V27.524C51.968 26.936 51.856 26.376 51.66 25.816C51.464 25.284 51.156 24.808 50.736 24.388C50.316 23.968 49.812 23.632 49.168 23.408C48.524 23.184 47.824 23.044 46.984 23.044H43.596V32.312H45.64ZM45.64 24.948H47.096C47.516 24.948 47.908 25.004 48.244 25.144C48.58 25.284 48.888 25.452 49.112 25.676C49.364 25.9 49.532 26.18 49.672 26.516C49.812 26.852 49.868 27.244 49.868 27.664C49.868 28.084 49.812 28.448 49.672 28.784C49.532 29.12 49.364 29.4 49.112 29.652C48.86 29.904 48.58 30.072 48.244 30.212C47.908 30.352 47.516 30.408 47.096 30.408H45.64V24.976V24.948Z" fill="#1E3791"/>
<path d="M13.7481 38.024C13.1321 37.772 12.4041 37.66 11.5641 37.66H8.17606V46.928H11.5641C12.4041 46.928 13.1041 46.788 13.7481 46.536C14.3921 46.284 14.8961 45.92 15.3161 45.5C15.7361 45.08 16.0441 44.576 16.2401 44.044C16.4361 43.512 16.5481 42.952 16.5481 42.42V42.14C16.5481 41.552 16.4361 40.992 16.2401 40.432C16.0441 39.9 15.7361 39.424 15.3161 39.004C14.8961 38.584 14.3921 38.248 13.7481 38.024ZM14.2801 43.4C14.1681 43.736 13.9721 44.016 13.7201 44.268C13.4681 44.52 13.1881 44.688 12.8521 44.828C12.5161 44.968 12.1241 45.024 11.7041 45.024H10.2481V39.592H11.7041C12.1241 39.592 12.5161 39.648 12.8521 39.76C13.1881 39.872 13.4961 40.068 13.7201 40.292C13.9721 40.516 14.1401 40.824 14.2801 41.132C14.3921 41.468 14.4761 41.86 14.4761 42.28C14.4761 42.7 14.4201 43.064 14.2801 43.4Z" fill="#1E3791"/>
<path d="M24.332 46.872H26.46L23.324 37.716H19.992L16.968 46.872H19.012L19.74 44.604H23.576L24.332 46.872ZM20.3 42.896L21.42 39.396H21.868L23.016 42.896H20.3Z" fill="#1E3791"/>
<path d="M33.544 37.716H26.32V39.508H28.896V46.872H30.968V39.508H33.544V37.716Z" fill="#1E3791"/>
<path d="M37.1 43.092H40.544V41.384H37.1V39.424H40.74V37.716H37.1H36.848H35.084V46.872H36.848H37.1H40.824V45.164H37.1V43.092Z" fill="#1E3791"/>
<path d="M51.7161 37.716H49.7841V45.22H49.5881L46.1441 37.716H42.7841V46.872H44.6881V39.396H44.8561L48.3001 46.872H51.7161V37.716Z" fill="#1E3791"/>
<path d="M13.3561 57.484H13.1041L11.0041 52.36H8.17606V61.516H10.0521V54.488L12.1801 59.64H14.1401L16.2681 54.432V61.516H18.2841V52.36H15.4001L13.3561 57.484Z" fill="#1E3791"/>
<path d="M28.644 53.564C28.224 53.116 27.72 52.752 27.104 52.472C26.488 52.192 25.788 52.052 24.976 52.052C24.164 52.052 23.464 52.192 22.848 52.472C22.232 52.752 21.728 53.116 21.308 53.564C20.888 54.012 20.58 54.516 20.384 55.076C20.188 55.636 20.076 56.196 20.076 56.756V57.036C20.076 57.54 20.16 58.072 20.384 58.632C20.58 59.192 20.888 59.696 21.28 60.172C21.672 60.648 22.176 61.012 22.792 61.32C23.408 61.628 24.136 61.768 24.948 61.768C25.76 61.768 26.488 61.628 27.104 61.32C27.72 61.012 28.224 60.648 28.616 60.172C29.008 59.696 29.316 59.192 29.512 58.632C29.708 58.072 29.82 57.54 29.82 57.036V56.756C29.82 56.196 29.708 55.636 29.512 55.076C29.288 54.516 28.98 54.012 28.588 53.564H28.644ZM27.608 58.044C27.496 58.38 27.3 58.716 27.048 58.968C26.796 59.248 26.516 59.444 26.152 59.584C25.816 59.724 25.424 59.808 24.976 59.808C24.528 59.808 24.164 59.724 23.8 59.584C23.436 59.444 23.156 59.22 22.904 58.968C22.652 58.688 22.456 58.38 22.344 58.044C22.232 57.708 22.148 57.316 22.148 56.924C22.148 56.532 22.204 56.112 22.344 55.748C22.484 55.384 22.652 55.076 22.904 54.824C23.156 54.572 23.436 54.348 23.8 54.208C24.136 54.068 24.528 53.984 24.976 53.984C25.424 53.984 25.788 54.04 26.152 54.208C26.516 54.376 26.796 54.544 27.048 54.824C27.3 55.076 27.496 55.412 27.608 55.748C27.748 56.112 27.804 56.504 27.804 56.924C27.804 57.344 27.748 57.708 27.608 58.044Z" fill="#1E3791"/>
<path d="M38.808 53.62C38.388 53.2 37.884 52.864 37.24 52.64C36.596 52.416 35.896 52.276 35.056 52.276H31.668V61.544H35.056C35.896 61.544 36.596 61.404 37.24 61.152C37.884 60.9 38.388 60.536 38.808 60.116C39.228 59.696 39.536 59.192 39.732 58.66C39.928 58.128 40.04 57.568 40.04 57.036V56.756C40.04 56.168 39.928 55.608 39.732 55.048C39.536 54.516 39.228 54.04 38.808 53.62ZM37.772 58.016C37.66 58.352 37.464 58.632 37.212 58.884C36.96 59.136 36.68 59.304 36.344 59.444C36.008 59.584 35.616 59.64 35.196 59.64H33.74V54.208H35.196C35.616 54.208 36.008 54.264 36.344 54.376C36.68 54.488 36.988 54.684 37.212 54.908C37.464 55.132 37.632 55.44 37.772 55.748C37.884 56.084 37.968 56.476 37.968 56.896C37.968 57.316 37.912 57.68 37.772 58.016Z" fill="#1E3791"/>
<path d="M43.736 57.708H47.18V56H43.736V54.068H47.404V52.36H43.736H43.484H41.72V61.516H43.484H43.736H47.488V59.808H43.736V57.708Z" fill="#1E3791"/>
<path d="M51.492 52.36H49.42V61.516H51.24H51.492H55.076V59.696H51.492V52.36Z" fill="#1E3791"/>
<path d="M58.7161 61.516H62.3001V59.696H58.7161V52.36H56.6721V61.516H58.4641H58.7161Z" fill="#1E3791"/>
<path d="M70 13.328C70 13.272 70 13.216 70 13.132C70 13.076 69.972 13.02 69.944 12.964C69.944 12.964 69.944 12.936 69.944 12.908C69.944 12.852 69.916 12.824 69.888 12.796C69.888 12.796 69.888 12.768 69.86 12.74C69.832 12.684 69.776 12.628 69.748 12.6L57.4 0.252C57.344 0.196 57.316 0.168 57.26 0.14C57.26 0.14 57.232 0.14 57.204 0.112C57.176 0.112 57.12 0.0559997 57.092 0.0559997C57.092 0.0559997 57.064 0.0559997 57.036 0.0559997C56.98 0.0559997 56.924 0.028 56.868 0C56.812 0 56.756 0 56.7 0H1.036C0.448 0 0 0.476 0 1.036V68.936C0 69.524 0.476 69.972 1.036 69.972H68.936C69.524 69.972 69.972 69.496 69.972 68.936V13.356L70 13.328ZM57.652 3.528L66.416 12.292H57.652V3.528ZM67.9 67.872H2.1V2.072H55.58V13.356C55.58 13.944 56.056 14.392 56.616 14.392H67.9V67.872Z" fill="#1E3791"/>
</svg>
