<?xml version="1.0" encoding="UTF-8"?>
<svg id="Ebene_1" xmlns="http://www.w3.org/2000/svg" viewBox="0 0 200 200">
  <defs>
    <style>
      .cls-1 {
        fill: none;
        stroke: #1e3791;
        stroke-linecap: round;
        stroke-linejoin: round;
        stroke-width: 6px;
      }

      .cls-2 {
        fill: #fff;
      }

      .cls-3 {
        fill: #8dd2c0;
      }

      .cls-4 {
        fill: #1e3791;
      }
    </style>
  </defs>
  <rect class="cls-2" x="-1100" y="-564" width="1604" height="804"/>
  <circle class="cls-3" cx="100" cy="100" r="60"/>
  <g>
    <rect class="cls-1" x="89.09" y="89.09" width="38.17" height="38.17" rx="5.45" ry="5.45"/>
    <path class="cls-1" d="M78.19,110.91c-3,0-5.45-2.45-5.45-5.45v-27.27c0-3,2.45-5.45,5.45-5.45h27.27c3,0,5.45,2.45,5.45,5.45"/>
  </g>
  <path class="cls-4" d="M104.74,114.93v-.49c0-.46.12-.83.36-1.1.24-.27.65-.53,1.23-.78l3.38-1.47c1.85-.81,3.21-1.74,4.1-2.79.88-1.05,1.33-2.38,1.33-4v-.35c0-1.25-.29-2.38-.88-3.38s-1.44-1.8-2.57-2.4c-1.13-.59-2.53-.9-4.2-.9s-3.08.31-4.22.93c-1.14.62-1.99,1.46-2.57,2.53-.58,1.07-.87,2.27-.87,3.6h4.59c0-.94.26-1.69.78-2.25.52-.56,1.28-.84,2.28-.84s1.76.27,2.28.81c.52.54.78,1.23.78,2.08s-.21,1.51-.62,2.05c-.41.54-1.05.99-1.92,1.36l-3.41,1.47c-1.08.46-1.95.96-2.6,1.49-.66.53-1.13,1.13-1.43,1.8-.3.67-.45,1.46-.45,2.37v4.33h15.04v-4.07h-10.42Z"/>
</svg>